{
    "asset" : {
        "generator" : "Khronos glTF Blender I/O v1.6.16",
        "version" : "2.0"
    },
    "scene" : 0,
    "scenes" : [
        {
            "name" : "Scene",
            "nodes" : [
                0,
                1,
                2,
                3,
                4,
                5,
                6
            ]
        }
    ],
    "nodes" : [
        {
            "name" : "Camera",
            "rotation" : [
                0.5832270979881287,
                0.26040494441986084,
                -0.2047688364982605,
                0.7416907548904419
            ],
            "translation" : [
                11.931814193725586,
                6.318497657775879,
                13.324210166931152
            ]
        },
        {
            "mesh" : 0,
            "name" : "hull"
        },
        {
            "mesh" : 1,
            "name" : "cabin"
        },
        {
            "mesh" : 2,
            "name" : "chimney",
            "rotation" : [
                0,
                0,
                0.03514484688639641,
                0.9993822574615479
            ],
            "translation" : [
                0.2780151963233948,
                -0.09730532020330429,
                0
            ]
        },
        {
            "mesh" : 3,
            "name" : "flagpole"
        },
        {
            "mesh" : 4,
            "name" : "flag",
            "translation" : [
                0.006636929232627153,
                0.08466600626707077,
                0.0068879202008247375
            ]
        },
        {
            "mesh" : 5,
            "name" : "anchor",
            "rotation" : [
                0.6367035508155823,
                -0.25152352452278137,
                0.22612223029136658,
                0.6929742097854614
            ],
            "translation" : [
                -2.239474058151245,
                0.5125324130058289,
                1.0513111352920532
            ]
        }
    ],
    "materials" : [
        {
            "doubleSided" : true,
            "name" : "red",
            "pbrMetallicRoughness" : {
                "baseColorFactor" : [
                    0.8000000715255737,
                    0.019773826003074646,
                    0.007374560926109552,
                    1
                ],
                "metallicFactor" : 0,
                "roughnessFactor" : 0.5
            }
        },
        {
            "doubleSided" : true,
            "name" : "white",
            "pbrMetallicRoughness" : {
                "baseColorFactor" : [
                    0.800000011920929,
                    0.800000011920929,
                    0.800000011920929,
                    1
                ],
                "metallicFactor" : 0,
                "roughnessFactor" : 0.5
            }
        },
        {
            "doubleSided" : true,
            "name" : "gold",
            "pbrMetallicRoughness" : {
                "baseColorFactor" : [
                    0.8000000715255737,
                    0.3640265166759491,
                    0.030339086428284645,
                    1
                ],
                "metallicFactor" : 0.6595744490623474,
                "roughnessFactor" : 0.5921986103057861
            }
        },
        {
            "doubleSided" : true,
            "name" : "glass",
            "pbrMetallicRoughness" : {
                "baseColorFactor" : [
                    0.042737849056720734,
                    0.39041373133659363,
                    0.8000000715255737,
                    1
                ],
                "metallicFactor" : 0,
                "roughnessFactor" : 0.06028369069099426
            }
        },
        {
            "doubleSided" : true,
            "name" : "grey",
            "pbrMetallicRoughness" : {
                "baseColorFactor" : [
                    0.26676133275032043,
                    0.26676133275032043,
                    0.26676133275032043,
                    1
                ],
                "metallicFactor" : 0,
                "roughnessFactor" : 0.5
            }
        },
        {
            "doubleSided" : true,
            "name" : "wood",
            "pbrMetallicRoughness" : {
                "baseColorFactor" : [
                    0.26676133275032043,
                    0.02706356905400753,
                    0.0005710325785912573,
                    1
                ],
                "metallicFactor" : 0,
                "roughnessFactor" : 0.9184397459030151
            }
        },
        {
            "doubleSided" : true,
            "name" : "darkgrey",
            "pbrMetallicRoughness" : {
                "baseColorFactor" : [
                    0.04445481300354004,
                    0.04445481300354004,
                    0.04445481300354004,
                    1
                ],
                "metallicFactor" : 0,
                "roughnessFactor" : 0.5
            }
        },
        {
            "doubleSided" : true,
            "name" : "flag",
            "pbrMetallicRoughness" : {
                "baseColorFactor" : [
                    0.06486642360687256,
                    0.29397374391555786,
                    0.8000000715255737,
                    1
                ],
                "metallicFactor" : 0,
                "roughnessFactor" : 0.8758865594863892
            }
        },
        {
            "doubleSided" : true,
            "name" : "metal",
            "pbrMetallicRoughness" : {
                "baseColorFactor" : [
                    0.028512533754110336,
                    0.045154180377721786,
                    0.07323455810546875,
                    1
                ],
                "metallicFactor" : 0.8581560254096985,
                "roughnessFactor" : 0.5780141949653625
            }
        }
    ],
    "meshes" : [
        {
            "name" : "Cube.002",
            "primitives" : [
                {
                    "attributes" : {
                        "POSITION" : 0,
                        "NORMAL" : 1,
                        "TEXCOORD_0" : 2
                    },
                    "indices" : 3,
                    "material" : 0
                }
            ]
        },
        {
            "name" : "Cube.003",
            "primitives" : [
                {
                    "attributes" : {
                        "POSITION" : 4,
                        "NORMAL" : 5,
                        "TEXCOORD_0" : 6
                    },
                    "indices" : 7,
                    "material" : 1
                },
                {
                    "attributes" : {
                        "POSITION" : 8,
                        "NORMAL" : 9,
                        "TEXCOORD_0" : 10
                    },
                    "indices" : 11,
                    "material" : 2
                },
                {
                    "attributes" : {
                        "POSITION" : 12,
                        "NORMAL" : 13,
                        "TEXCOORD_0" : 14
                    },
                    "indices" : 15,
                    "material" : 3
                },
                {
                    "attributes" : {
                        "POSITION" : 16,
                        "NORMAL" : 17,
                        "TEXCOORD_0" : 18
                    },
                    "indices" : 19,
                    "material" : 4
                },
                {
                    "attributes" : {
                        "POSITION" : 20,
                        "NORMAL" : 21,
                        "TEXCOORD_0" : 22
                    },
                    "indices" : 23,
                    "material" : 5
                }
            ]
        },
        {
            "name" : "Cylinder.001",
            "primitives" : [
                {
                    "attributes" : {
                        "POSITION" : 24,
                        "NORMAL" : 25,
                        "TEXCOORD_0" : 26
                    },
                    "indices" : 27,
                    "material" : 6
                }
            ]
        },
        {
            "name" : "Cube.004",
            "primitives" : [
                {
                    "attributes" : {
                        "POSITION" : 28,
                        "NORMAL" : 29,
                        "TEXCOORD_0" : 30
                    },
                    "indices" : 31,
                    "material" : 4
                }
            ]
        },
        {
            "name" : "Cube.005",
            "primitives" : [
                {
                    "attributes" : {
                        "POSITION" : 32,
                        "NORMAL" : 33,
                        "TEXCOORD_0" : 34
                    },
                    "indices" : 35,
                    "material" : 7
                }
            ]
        },
        {
            "name" : "Circle",
            "primitives" : [
                {
                    "attributes" : {
                        "POSITION" : 36,
                        "NORMAL" : 37,
                        "TEXCOORD_0" : 38
                    },
                    "indices" : 39,
                    "material" : 8
                }
            ]
        }
    ],
    "accessors" : [
        {
            "bufferView" : 0,
            "componentType" : 5126,
            "count" : 515,
            "max" : [
                3.8625428676605225,
                2.8064587116241455,
                1.5760451555252075
            ],
            "min" : [
                -3.0425591468811035,
                -0.9861041903495789,
                0
            ],
            "type" : "VEC3"
        },
        {
            "bufferView" : 1,
            "componentType" : 5126,
            "count" : 515,
            "type" : "VEC3"
        },
        {
            "bufferView" : 2,
            "componentType" : 5126,
            "count" : 515,
            "type" : "VEC2"
        },
        {
            "bufferView" : 3,
            "componentType" : 5123,
            "count" : 1113,
            "type" : "SCALAR"
        },
        {
            "bufferView" : 4,
            "componentType" : 5126,
            "count" : 78,
            "max" : [
                2.2854580879211426,
                3.885235071182251,
                0.8713666796684265
            ],
            "min" : [
                -1.9836407899856567,
                0.6166415214538574,
                0
            ],
            "type" : "VEC3"
        },
        {
            "bufferView" : 5,
            "componentType" : 5126,
            "count" : 78,
            "type" : "VEC3"
        },
        {
            "bufferView" : 6,
            "componentType" : 5126,
            "count" : 78,
            "type" : "VEC2"
        },
        {
            "bufferView" : 7,
            "componentType" : 5123,
            "count" : 120,
            "type" : "SCALAR"
        },
        {
            "bufferView" : 8,
            "componentType" : 5126,
            "count" : 1530,
            "max" : [
                0.31483232975006104,
                2.50985050201416,
                0.877144992351532
            ],
            "min" : [
                -1.4343407154083252,
                1.66997230052948,
                0
            ],
            "type" : "VEC3"
        },
        {
            "bufferView" : 9,
            "componentType" : 5126,
            "count" : 1530,
            "type" : "VEC3"
        },
        {
            "bufferView" : 10,
            "componentType" : 5126,
            "count" : 1530,
            "type" : "VEC2"
        },
        {
            "bufferView" : 11,
            "componentType" : 5123,
            "count" : 2304,
            "type" : "SCALAR"
        },
        {
            "bufferView" : 12,
            "componentType" : 5126,
            "count" : 255,
            "max" : [
                0.23731768131256104,
                2.432335615158081,
                0.8122320175170898
            ],
            "min" : [
                -1.3568260669708252,
                1.7474868297576904,
                0.8122320175170898
            ],
            "type" : "VEC3"
        },
        {
            "bufferView" : 13,
            "componentType" : 5126,
            "count" : 255,
            "type" : "VEC3"
        },
        {
            "bufferView" : 14,
            "componentType" : 5126,
            "count" : 255,
            "type" : "VEC2"
        },
        {
            "bufferView" : 15,
            "componentType" : 5123,
            "count" : 384,
            "type" : "SCALAR"
        },
        {
            "bufferView" : 16,
            "componentType" : 5126,
            "count" : 188,
            "max" : [
                2.2781624794006348,
                3.885235071182251,
                0.9564085602760315
            ],
            "min" : [
                -0.31658935546875,
                0.7255921959877014,
                0
            ],
            "type" : "VEC3"
        },
        {
            "bufferView" : 17,
            "componentType" : 5126,
            "count" : 188,
            "type" : "VEC3"
        },
        {
            "bufferView" : 18,
            "componentType" : 5126,
            "count" : 188,
            "type" : "VEC2"
        },
        {
            "bufferView" : 19,
            "componentType" : 5123,
            "count" : 318,
            "type" : "SCALAR"
        },
        {
            "bufferView" : 20,
            "componentType" : 5126,
            "count" : 8,
            "max" : [
                1.7522119283676147,
                2.953305244445801,
                0.7400307655334473
            ],
            "min" : [
                0.8264473676681519,
                0.8238558173179626,
                0.7400305867195129
            ],
            "type" : "VEC3"
        },
        {
            "bufferView" : 21,
            "componentType" : 5126,
            "count" : 8,
            "type" : "VEC3"
        },
        {
            "bufferView" : 22,
            "componentType" : 5126,
            "count" : 8,
            "type" : "VEC2"
        },
        {
            "bufferView" : 23,
            "componentType" : 5123,
            "count" : 18,
            "type" : "SCALAR"
        },
        {
            "bufferView" : 24,
            "componentType" : 5126,
            "count" : 297,
            "max" : [
                1.0434070825576782,
                4.935929298400879,
                0.7825291752815247
            ],
            "min" : [
                -1.04340660572052,
                2.321268081665039,
                4.106729534214537e-07
            ],
            "type" : "VEC3"
        },
        {
            "bufferView" : 25,
            "componentType" : 5126,
            "count" : 297,
            "type" : "VEC3"
        },
        {
            "bufferView" : 26,
            "componentType" : 5126,
            "count" : 297,
            "type" : "VEC2"
        },
        {
            "bufferView" : 27,
            "componentType" : 5123,
            "count" : 960,
            "type" : "SCALAR"
        },
        {
            "bufferView" : 28,
            "componentType" : 5126,
            "count" : 56,
            "max" : [
                -1.440636396408081,
                3.8306939601898193,
                0.09261143952608109
            ],
            "min" : [
                -1.6258587837219238,
                1.3012499809265137,
                -0.09261106699705124
            ],
            "type" : "VEC3"
        },
        {
            "bufferView" : 29,
            "componentType" : 5126,
            "count" : 56,
            "type" : "VEC3"
        },
        {
            "bufferView" : 30,
            "componentType" : 5126,
            "count" : 56,
            "type" : "VEC2"
        },
        {
            "bufferView" : 31,
            "componentType" : 5123,
            "count" : 108,
            "type" : "SCALAR"
        },
        {
            "bufferView" : 32,
            "componentType" : 5126,
            "count" : 408,
            "max" : [
                -1.5469653606414795,
                3.693225860595703,
                0.12493176013231277
            ],
            "min" : [
                -3.485093832015991,
                3.153698682785034,
                -0.1379338949918747
            ],
            "type" : "VEC3"
        },
        {
            "bufferView" : 33,
            "componentType" : 5126,
            "count" : 408,
            "type" : "VEC3"
        },
        {
            "bufferView" : 34,
            "componentType" : 5126,
            "count" : 408,
            "type" : "VEC2"
        },
        {
            "bufferView" : 35,
            "componentType" : 5123,
            "count" : 1554,
            "type" : "SCALAR"
        },
        {
            "bufferView" : 36,
            "componentType" : 5126,
            "count" : 1140,
            "max" : [
                0.5875048041343689,
                0.06211579591035843,
                0.8728102445602417
            ],
            "min" : [
                0,
                -5.3347097406231114e-08,
                -0.6975704431533813
            ],
            "type" : "VEC3"
        },
        {
            "bufferView" : 37,
            "componentType" : 5126,
            "count" : 1140,
            "type" : "VEC3"
        },
        {
            "bufferView" : 38,
            "componentType" : 5126,
            "count" : 1140,
            "type" : "VEC2"
        },
        {
            "bufferView" : 39,
            "componentType" : 5123,
            "count" : 1776,
            "type" : "SCALAR"
        }
    ],
    "bufferViews" : [
        {
            "buffer" : 0,
            "byteLength" : 6180,
            "byteOffset" : 0
        },
        {
            "buffer" : 0,
            "byteLength" : 6180,
            "byteOffset" : 6180
        },
        {
            "buffer" : 0,
            "byteLength" : 4120,
            "byteOffset" : 12360
        },
        {
            "buffer" : 0,
            "byteLength" : 2226,
            "byteOffset" : 16480
        },
        {
            "buffer" : 0,
            "byteLength" : 936,
            "byteOffset" : 18708
        },
        {
            "buffer" : 0,
            "byteLength" : 936,
            "byteOffset" : 19644
        },
        {
            "buffer" : 0,
            "byteLength" : 624,
            "byteOffset" : 20580
        },
        {
            "buffer" : 0,
            "byteLength" : 240,
            "byteOffset" : 21204
        },
        {
            "buffer" : 0,
            "byteLength" : 18360,
            "byteOffset" : 21444
        },
        {
            "buffer" : 0,
            "byteLength" : 18360,
            "byteOffset" : 39804
        },
        {
            "buffer" : 0,
            "byteLength" : 12240,
            "byteOffset" : 58164
        },
        {
            "buffer" : 0,
            "byteLength" : 4608,
            "byteOffset" : 70404
        },
        {
            "buffer" : 0,
            "byteLength" : 3060,
            "byteOffset" : 75012
        },
        {
            "buffer" : 0,
            "byteLength" : 3060,
            "byteOffset" : 78072
        },
        {
            "buffer" : 0,
            "byteLength" : 2040,
            "byteOffset" : 81132
        },
        {
            "buffer" : 0,
            "byteLength" : 768,
            "byteOffset" : 83172
        },
        {
            "buffer" : 0,
            "byteLength" : 2256,
            "byteOffset" : 83940
        },
        {
            "buffer" : 0,
            "byteLength" : 2256,
            "byteOffset" : 86196
        },
        {
            "buffer" : 0,
            "byteLength" : 1504,
            "byteOffset" : 88452
        },
        {
            "buffer" : 0,
            "byteLength" : 636,
            "byteOffset" : 89956
        },
        {
            "buffer" : 0,
            "byteLength" : 96,
            "byteOffset" : 90592
        },
        {
            "buffer" : 0,
            "byteLength" : 96,
            "byteOffset" : 90688
        },
        {
            "buffer" : 0,
            "byteLength" : 64,
            "byteOffset" : 90784
        },
        {
            "buffer" : 0,
            "byteLength" : 36,
            "byteOffset" : 90848
        },
        {
            "buffer" : 0,
            "byteLength" : 3564,
            "byteOffset" : 90884
        },
        {
            "buffer" : 0,
            "byteLength" : 3564,
            "byteOffset" : 94448
        },
        {
            "buffer" : 0,
            "byteLength" : 2376,
            "byteOffset" : 98012
        },
        {
            "buffer" : 0,
            "byteLength" : 1920,
            "byteOffset" : 100388
        },
        {
            "buffer" : 0,
            "byteLength" : 672,
            "byteOffset" : 102308
        },
        {
            "buffer" : 0,
            "byteLength" : 672,
            "byteOffset" : 102980
        },
        {
            "buffer" : 0,
            "byteLength" : 448,
            "byteOffset" : 103652
        },
        {
            "buffer" : 0,
            "byteLength" : 216,
            "byteOffset" : 104100
        },
        {
            "buffer" : 0,
            "byteLength" : 4896,
            "byteOffset" : 104316
        },
        {
            "buffer" : 0,
            "byteLength" : 4896,
            "byteOffset" : 109212
        },
        {
            "buffer" : 0,
            "byteLength" : 3264,
            "byteOffset" : 114108
        },
        {
            "buffer" : 0,
            "byteLength" : 3108,
            "byteOffset" : 117372
        },
        {
            "buffer" : 0,
            "byteLength" : 13680,
            "byteOffset" : 120480
        },
        {
            "buffer" : 0,
            "byteLength" : 13680,
            "byteOffset" : 134160
        },
        {
            "buffer" : 0,
            "byteLength" : 9120,
            "byteOffset" : 147840
        },
        {
            "buffer" : 0,
            "byteLength" : 3552,
            "byteOffset" : 156960
        }
    ],
    "buffers" : [
        {
            "byteLength" : 160512,
            "uri" : "data:application/octet-stream;base64,"
        }
    ]
}
